#Comment line ignore any data following # character 
#Hierarchical Translation and Rotation (.htr) file 
[Header]	
#Header keywords are followed by a single value 
FileType HTR		#Single word string
DataType HTRS		#Translation followed by rotation and scale data
FileVersion 1		#integer
NumSegments 84		#integer
NumFrames 2		#integer
DataFrameRate 30		#integer, data frame rate in this file
EulerRotationOrder ZYX
CalibrationUnits mm
RotationUnits Degrees
GlobalAxisofGravity Y
BoneLengthAxis Y
ScaleFactor 1.00
[SegmentNames&Hierarchy]
#CHILD	PARENT
MASTER GLOBAL
root MASTER
chest root
L_mid_tent01 root
R_mid_tent01 root
spine01 root
Bip01_Neck chest
L_humerus chest
R_humerus chest
weapon_bone chest
Bip01_Head Bip01_Neck
eye_left_bone Bip01_Head
eye_right_bone Bip01_Head
L_forearm L_humerus
L_front_hand L_forearm
L_weapon_bone L_forearm
L_front_hand01_01 L_front_hand
L_front_hand02_01 L_front_hand
L_front_hand03_01 L_front_hand
L_front_hand01_02 L_front_hand01_01
L_front_hand02_02 L_front_hand02_01
L_front_hand03_02 L_front_hand03_01
R_forearm R_humerus
R_front_hand R_forearm
R_weapon_bone R_forearm
R_front_hand01_01 R_front_hand
R_front_hand02_01 R_front_hand
R_front_hand03_01 R_front_hand
R_front_hand01_02 R_front_hand01_01
R_front_hand02_02 R_front_hand02_01
R_front_hand03_02 R_front_hand03_01
null_rope01_connect L_mid_tent01
Rope1_Seg01 null_rope01_connect
Rope1_Seg02 Rope1_Seg01
Rope1_Seg03 Rope1_Seg02
Rope1_Seg04 Rope1_Seg03
Rope1_Seg05 Rope1_Seg04
Rope1_Seg06 Rope1_Seg05
Rope1_Seg07 Rope1_Seg06
Rope1_Seg09 Rope1_Seg07
L_mid_hand01 Rope1_Seg09
L_mid_hand02 Rope1_Seg09
L_mid_hand03 Rope1_Seg09
null_rope02_connect R_mid_tent01
Rope2_Seg01 null_rope02_connect
Rope2_Seg02 Rope2_Seg01
Rope2_Seg03 Rope2_Seg02
Rope2_Seg04 Rope2_Seg03
Rope2_Seg05 Rope2_Seg04
Rope2_Seg06 Rope2_Seg05
Rope2_Seg07 Rope2_Seg06
Rope2_Seg09 Rope2_Seg07
R_mid_hand01 Rope2_Seg09
R_mid_hand02 Rope2_Seg09
R_mid_hand03 Rope2_Seg09
spine02 spine01
spine03 spine02
pelvis spine03
null_rope03_connect pelvis
null_rope04_connect pelvis
Rope3_Seg01 null_rope03_connect
Rope3_Seg02 Rope3_Seg01
Rope3_Seg03 Rope3_Seg02
Rope3_Seg04 Rope3_Seg03
Rope3_Seg05 Rope3_Seg04
Rope3_Seg06 Rope3_Seg05
Rope3_Seg07 Rope3_Seg06
Rope3_Seg08 Rope3_Seg07
Rope3_Seg09 Rope3_Seg08
R_rear_hand01 Rope3_Seg09
R_rear_hand02 Rope3_Seg09
R_rear_hand03 Rope3_Seg09
Rope4_Seg01 null_rope04_connect
Rope4_Seg02 Rope4_Seg01
Rope4_Seg03 Rope4_Seg02
Rope4_Seg04 Rope4_Seg03
Rope4_Seg05 Rope4_Seg04
Rope4_Seg06 Rope4_Seg05
Rope4_Seg07 Rope4_Seg06
Rope4_Seg08 Rope4_Seg07
Rope4_Seg09 Rope4_Seg08
L_rear_hand01 Rope4_Seg09
L_rear_hand02 Rope4_Seg09
L_rear_hand03 Rope4_Seg09
[BasePosition]
#SegmentName Tx, Ty, Tz, Rx, Ry, Rz, BoneLength
MASTER 0.000000 0.000000 0.000000 -90.000000 0.000000 0.000000 10.000000 
root 0.000000 0.000000 0.000000 0.000000 0.000000 0.000000 10.000000 
chest 0.000000 0.000000 0.000000 0.000000 0.000000 0.000000 10.000000 
L_mid_tent01 0.000000 0.000000 0.000000 0.000000 0.000000 0.000000 10.000000 
R_mid_tent01 0.000000 0.000000 0.000000 0.000000 0.000000 0.000000 10.000000 
spine01 0.000000 0.000000 0.000000 0.000000 0.000000 0.000000 10.000000 
Bip01_Neck 0.000000 0.000000 0.000000 0.000000 0.000000 0.000000 10.000000 
L_humerus 0.000000 0.000000 0.000000 0.000000 0.000000 0.000000 10.000000 
R_humerus 0.000000 0.000000 0.000000 0.000000 0.000000 0.000000 10.000000 
weapon_bone 0.000000 0.000000 0.000000 0.000000 0.000000 0.000000 10.000000 
Bip01_Head 0.000000 0.000000 0.000000 0.000000 0.000000 0.000000 10.000000 
eye_left_bone 0.000000 0.000000 0.000000 0.000000 0.000000 0.000000 10.000000 
eye_right_bone 0.000000 0.000000 0.000000 0.000000 0.000000 0.000000 10.000000 
L_forearm 0.000000 0.000000 0.000000 0.000000 0.000000 0.000000 10.000000 
L_front_hand 0.000000 0.000000 0.000000 0.000000 0.000000 0.000000 10.000000 
L_weapon_bone 0.000000 0.000000 0.000000 0.000000 0.000000 0.000000 10.000000 
L_front_hand01_01 0.000000 0.000000 0.000000 0.000000 0.000000 0.000000 10.000000 
L_front_hand02_01 0.000000 0.000000 0.000000 0.000000 0.000000 0.000000 10.000000 
L_front_hand03_01 0.000000 0.000000 0.000000 0.000000 0.000000 0.000000 10.000000 
L_front_hand01_02 0.000000 0.000000 0.000000 0.000000 0.000000 0.000000 10.000000 
L_front_hand02_02 0.000000 0.000000 0.000000 0.000000 0.000000 0.000000 10.000000 
L_front_hand03_02 0.000000 0.000000 0.000000 0.000000 0.000000 0.000000 10.000000 
R_forearm 0.000000 0.000000 0.000000 0.000000 0.000000 0.000000 10.000000 
R_front_hand 0.000000 0.000000 0.000000 0.000000 0.000000 0.000000 10.000000 
R_weapon_bone 0.000000 0.000000 0.000000 0.000000 0.000000 0.000000 10.000000 
R_front_hand01_01 0.000000 0.000000 0.000000 0.000000 0.000000 0.000000 10.000000 
R_front_hand02_01 0.000000 0.000000 0.000000 0.000000 0.000000 0.000000 10.000000 
R_front_hand03_01 0.000000 0.000000 0.000000 0.000000 0.000000 0.000000 10.000000 
R_front_hand01_02 0.000000 0.000000 0.000000 0.000000 0.000000 0.000000 10.000000 
R_front_hand02_02 0.000000 0.000000 0.000000 0.000000 0.000000 0.000000 10.000000 
R_front_hand03_02 0.000000 0.000000 0.000000 0.000000 0.000000 0.000000 10.000000 
null_rope01_connect 0.000000 0.000000 0.000000 0.000000 0.000000 0.000000 10.000000 
Rope1_Seg01 0.000000 0.000000 0.000000 0.000000 0.000000 0.000000 10.000000 
Rope1_Seg02 0.000000 0.000000 0.000000 0.000000 0.000000 0.000000 10.000000 
Rope1_Seg03 0.000000 0.000000 0.000000 0.000000 0.000000 0.000000 10.000000 
Rope1_Seg04 0.000000 0.000000 0.000000 0.000000 0.000000 0.000000 10.000000 
Rope1_Seg05 0.000000 0.000000 0.000000 0.000000 0.000000 0.000000 10.000000 
Rope1_Seg06 0.000000 0.000000 0.000000 0.000000 0.000000 0.000000 10.000000 
Rope1_Seg07 0.000000 0.000000 0.000000 0.000000 0.000000 0.000000 10.000000 
Rope1_Seg09 0.000000 0.000000 0.000000 0.000000 0.000000 0.000000 10.000000 
L_mid_hand01 0.000000 0.000000 0.000000 0.000000 0.000000 0.000000 10.000000 
L_mid_hand02 0.000000 0.000000 0.000000 0.000000 0.000000 0.000000 10.000000 
L_mid_hand03 0.000000 0.000000 0.000000 0.000000 0.000000 0.000000 10.000000 
null_rope02_connect 0.000000 0.000000 0.000000 0.000000 0.000000 0.000000 10.000000 
Rope2_Seg01 0.000000 0.000000 0.000000 0.000000 0.000000 0.000000 10.000000 
Rope2_Seg02 0.000000 0.000000 0.000000 0.000000 0.000000 0.000000 10.000000 
Rope2_Seg03 0.000000 0.000000 0.000000 0.000000 0.000000 0.000000 10.000000 
Rope2_Seg04 0.000000 0.000000 0.000000 0.000000 0.000000 0.000000 10.000000 
Rope2_Seg05 0.000000 0.000000 0.000000 0.000000 0.000000 0.000000 10.000000 
Rope2_Seg06 0.000000 0.000000 0.000000 0.000000 0.000000 0.000000 10.000000 
Rope2_Seg07 0.000000 0.000000 0.000000 0.000000 0.000000 0.000000 10.000000 
Rope2_Seg09 0.000000 0.000000 0.000000 0.000000 0.000000 0.000000 10.000000 
R_mid_hand01 0.000000 0.000000 0.000000 0.000000 0.000000 0.000000 10.000000 
R_mid_hand02 0.000000 0.000000 0.000000 0.000000 0.000000 0.000000 10.000000 
R_mid_hand03 0.000000 0.000000 0.000000 0.000000 0.000000 0.000000 10.000000 
spine02 0.000000 0.000000 0.000000 0.000000 0.000000 0.000000 10.000000 
spine03 0.000000 0.000000 0.000000 0.000000 0.000000 0.000000 10.000000 
pelvis 0.000000 0.000000 0.000000 0.000000 0.000000 0.000000 10.000000 
null_rope03_connect 0.000000 0.000000 0.000000 0.000000 0.000000 0.000000 10.000000 
null_rope04_connect 0.000000 0.000000 0.000000 0.000000 0.000000 0.000000 10.000000 
Rope3_Seg01 0.000000 0.000000 0.000000 0.000000 0.000000 0.000000 10.000000 
Rope3_Seg02 0.000000 0.000000 0.000000 0.000000 0.000000 0.000000 10.000000 
Rope3_Seg03 0.000000 0.000000 0.000000 0.000000 0.000000 0.000000 10.000000 
Rope3_Seg04 0.000000 0.000000 0.000000 0.000000 0.000000 0.000000 10.000000 
Rope3_Seg05 0.000000 0.000000 0.000000 0.000000 0.000000 0.000000 10.000000 
Rope3_Seg06 0.000000 0.000000 0.000000 0.000000 0.000000 0.000000 10.000000 
Rope3_Seg07 0.000000 0.000000 0.000000 0.000000 0.000000 0.000000 10.000000 
Rope3_Seg08 0.000000 0.000000 0.000000 0.000000 0.000000 0.000000 10.000000 
Rope3_Seg09 0.000000 0.000000 0.000000 0.000000 0.000000 0.000000 10.000000 
R_rear_hand01 0.000000 0.000000 0.000000 0.000000 0.000000 0.000000 10.000000 
R_rear_hand02 0.000000 0.000000 0.000000 0.000000 0.000000 0.000000 10.000000 
R_rear_hand03 0.000000 0.000000 0.000000 0.000000 0.000000 0.000000 10.000000 
Rope4_Seg01 0.000000 0.000000 0.000000 0.000000 0.000000 0.000000 10.000000 
Rope4_Seg02 0.000000 0.000000 0.000000 0.000000 0.000000 0.000000 10.000000 
Rope4_Seg03 0.000000 0.000000 0.000000 0.000000 0.000000 0.000000 10.000000 
Rope4_Seg04 0.000000 0.000000 0.000000 0.000000 0.000000 0.000000 10.000000 
Rope4_Seg05 0.000000 0.000000 0.000000 0.000000 0.000000 0.000000 10.000000 
Rope4_Seg06 0.000000 0.000000 0.000000 0.000000 0.000000 0.000000 10.000000 
Rope4_Seg07 0.000000 0.000000 0.000000 0.000000 0.000000 0.000000 10.000000 
Rope4_Seg08 0.000000 0.000000 0.000000 0.000000 0.000000 0.000000 10.000000 
Rope4_Seg09 0.000000 0.000000 0.000000 0.000000 0.000000 0.000000 10.000000 
L_rear_hand01 0.000000 0.000000 0.000000 0.000000 0.000000 0.000000 10.000000 
L_rear_hand02 0.000000 0.000000 0.000000 0.000000 0.000000 0.000000 10.000000 
L_rear_hand03 0.000000 0.000000 0.000000 0.000000 0.000000 0.000000 10.000000 
#Beginning of Data. Separated by tabs
#Fr	Tx	Ty	Tz	Rx	Ry	Rz	SF
[MASTER]
16 0.000000 0.000000 0.000000 0.001660 0.001660 0.001660 0.000000
17 0.000000 0.000000 0.000000 0.001660 0.001660 0.001660 0.000000
[root]
16 -172.024750 465.042419 1558.638184 -106.226692 -18.055161 -32.085155 1635.606934
17 -171.945328 464.870056 1564.443481 -106.127777 -19.106602 -32.094234 1641.082764
[chest]
16 -84.512650 -34.090519 0.000000 7.267433 -1.631037 -178.925674 91.129311
17 -84.512650 -34.090519 0.000000 6.119547 -1.157672 -178.666763 91.129311
[L_mid_tent01]
16 27.299099 22.179182 -249.918854 -33.057808 47.381611 -0.367647 252.381821
17 27.299099 22.179176 -249.918869 -32.628490 50.388302 0.864475 252.381836
[R_mid_tent01]
16 23.228794 24.509907 226.238495 79.322891 -30.524443 177.282379 228.744751
17 23.228794 24.509907 226.238495 83.687683 -36.250668 172.721939 228.744751
[spine01]
16 -0.361383 -0.195265 0.000000 -0.075833 -0.034587 22.618513 0.410763
17 -0.361383 -0.195265 0.000000 -0.070196 -0.031704 22.575140 0.410763
[Bip01_Neck]
16 165.484543 71.581718 0.000119 175.896118 1.177290 24.871183 180.302734
17 165.484543 71.581718 0.000119 175.896118 1.177290 24.871183 180.302734
[L_humerus]
16 -13.983130 -135.272980 -120.471481 -4.872385 65.162987 85.173759 181.680161
17 -13.983130 -135.272980 -120.471481 -4.919187 65.428215 85.129601 181.680161
[R_humerus]
16 -13.983309 -135.273102 125.287651 80.739349 -32.783257 6.622900 184.909012
17 -13.983309 -135.273102 125.287651 79.564476 -34.064564 8.286500 184.909012
[weapon_bone]
16 235.964890 -300.705902 0.000000 0.000000 -89.951546 -128.212341 382.234833
17 235.964890 -300.705902 0.000000 0.000000 -89.951546 -128.212341 382.234833
[Bip01_Head]
16 238.240204 192.463684 -10.078734 -46.998676 5.842404 -62.452702 306.434723
17 237.290802 195.893860 -10.231533 -46.988155 6.154832 -62.157459 307.873352
[eye_left_bone]
16 1.909637 119.937607 -57.331520 0.000000 -90.000000 -99.840431 132.949539
17 1.886291 119.942474 -57.338104 0.000000 -90.000000 -99.840431 132.956436
[eye_right_bone]
16 1.914856 119.935120 71.769051 0.000000 -89.965736 80.156380 139.781601
17 1.891479 119.939957 71.762466 0.000000 -89.965736 80.156380 139.782043
[L_forearm]
16 322.776093 0.000000 -0.000119 0.000427 -0.002308 -110.957794 322.776093
17 322.776093 0.000000 -0.000119 0.000424 -0.002309 -110.837608 322.776093
[L_front_hand]
16 241.149185 -0.042021 -3.300071 -178.667953 -1.835447 -27.422350 241.171753
17 241.149185 -0.042021 -3.300071 -178.667953 -1.835447 -27.422350 241.171753
[L_weapon_bone]
16 156.183838 0.000000 0.000000 0.000014 0.000007 0.000001 156.183838
17 156.183838 0.000000 0.000000 0.000014 0.000007 0.000001 156.183838
[L_front_hand01_01]
16 86.095154 20.947098 -0.655860 -0.366594 -0.477154 75.385574 88.609184
17 86.095154 20.947098 -0.655860 -0.366594 -0.477154 75.385574 88.609184
[L_front_hand02_01]
16 86.935165 -11.437475 24.513514 154.403519 -59.888931 -61.371990 91.046425
17 86.935165 -11.437475 24.513514 154.403519 -59.888931 -61.371990 91.046425
[L_front_hand03_01]
16 86.637497 -14.123976 -20.424902 -153.913849 58.118122 -62.702866 90.126129
17 86.637497 -14.123976 -20.424902 -153.913849 58.118122 -62.702866 90.126129
[L_front_hand01_02]
16 71.020905 -0.000179 0.000030 0.000334 -0.002323 -106.379684 71.020905
17 71.020905 -0.000179 0.000030 0.000334 -0.002323 -106.379684 71.020905
[L_front_hand02_02]
16 71.020927 -0.000119 0.000060 0.000334 -0.002323 -106.379684 71.020927
17 71.020927 -0.000119 0.000060 0.000334 -0.002323 -106.379684 71.020927
[L_front_hand03_02]
16 71.020905 -0.000060 0.000060 0.000334 -0.002323 -106.379684 71.020905
17 71.020905 -0.000060 0.000060 0.000334 -0.002323 -106.379684 71.020905
[R_forearm]
16 322.776428 -0.000060 0.000030 -0.001385 -0.211026 -1.032000 322.776428
17 322.776428 -0.000060 0.000030 -0.004755 -0.210977 0.797933 322.776428
[R_front_hand]
16 238.847015 -0.006795 2.210259 74.477386 1.645843 -6.437488 238.857239
17 238.847015 -0.006795 2.210259 78.152657 3.189585 -8.358073 238.857239
[R_weapon_bone]
16 155.664093 0.002503 -0.000030 0.003487 0.001180 -90.988930 155.664078
17 155.664093 0.002503 -0.000030 0.003487 0.001180 -90.988930 155.664078
[R_front_hand01_01]
16 87.624611 14.231146 22.918642 -154.633499 -59.950619 61.746044 91.683487
17 87.624611 14.231146 22.918642 -154.633484 -59.950619 61.746037 91.683487
[R_front_hand02_01]
16 89.356956 14.367283 -19.491137 154.602661 58.302849 63.744389 92.579636
17 89.356956 14.367283 -19.491137 154.602661 58.302849 63.744389 92.579636
[R_front_hand03_01]
16 87.286232 -22.307278 -0.143439 0.162155 -0.423168 -75.767921 90.091743
17 87.286232 -22.307278 -0.143439 0.162155 -0.423168 -75.767921 90.091743
[R_front_hand01_02]
16 71.020905 0.000060 0.000119 0.001777 0.001534 8.377220 71.020905
17 71.020905 0.000060 0.000119 0.001777 0.001534 8.377220 71.020905
[R_front_hand02_02]
16 71.020844 -0.000030 -0.000119 0.001777 0.001534 8.377220 71.020836
17 71.020844 -0.000030 -0.000119 0.001777 0.001534 8.377220 71.020836
[R_front_hand03_02]
16 71.020905 0.000000 0.000030 0.001777 0.001534 8.377220 71.020905
17 71.020905 0.000000 0.000030 0.001777 0.001534 8.377220 71.020905
[null_rope01_connect]
16 328.732483 0.000000 -0.000238 -168.581909 -62.478977 -75.504433 328.732483
17 328.732483 0.000000 -0.000238 -162.984299 -63.311523 -82.465698 328.732483
[Rope1_Seg01]
16 0.000019 -0.000052 0.000076 -4.421522 -20.759048 -64.733223 0.000095
17 0.000023 -0.000051 0.000081 -2.017266 -20.239723 -69.153702 0.000099
[Rope1_Seg02]
16 139.999863 -0.000179 0.000000 4.697792 -6.545701 -9.091017 139.999863
17 139.999863 -0.000179 0.000000 5.055037 -7.237965 -7.624878 139.999863
[Rope1_Seg03]
16 139.999924 0.000060 -0.000060 17.680605 -19.136543 -25.409126 139.999924
17 139.999924 0.000060 -0.000060 16.968513 -21.805735 -21.781467 139.999924
[Rope1_Seg04]
16 139.999924 -0.000060 -0.000119 23.600538 -32.917995 -29.312836 139.999924
17 139.999924 -0.000060 -0.000119 21.188108 -39.530972 -27.649132 139.999924
[Rope1_Seg05]
16 139.999832 0.000119 -0.000060 21.467121 -63.296688 -37.478943 139.999832
17 139.999832 0.000119 -0.000060 7.380993 -64.092766 -29.410730 139.999832
[Rope1_Seg06]
16 139.999954 0.000119 -0.000060 -6.447616 -20.269812 -7.457047 139.999954
17 139.999954 0.000119 -0.000060 -7.318392 -16.160803 -7.760851 139.999954
[Rope1_Seg07]
16 139.999985 0.000060 0.000000 -2.432323 -5.029028 -2.649793 139.999985
17 139.999985 0.000060 0.000000 -2.635039 -4.352196 -2.928288 139.999985
[Rope1_Seg09]
16 121.602913 0.000119 -0.000089 -89.793175 -1.359789 0.847147 121.602913
17 121.602913 0.000119 -0.000089 -89.793175 -1.359789 0.847147 121.602913
[L_mid_hand01]
16 103.859421 1.038730 8.195221 114.520287 -53.310486 -20.623234 104.187431
17 103.859421 1.038730 8.195221 114.520287 -53.310486 -20.623234 104.187431
[L_mid_hand02]
16 105.572853 -4.139662 -10.864139 -155.067673 38.166626 -52.448818 106.211075
17 105.572853 -4.139662 -10.864139 -155.067673 38.166626 -52.448818 106.211075
[L_mid_hand03]
16 104.641464 17.579376 -3.913581 -10.970130 15.317461 57.626949 106.179977
17 104.641464 17.579376 -3.913581 -10.970130 15.317461 57.626949 106.179977
[null_rope02_connect]
16 328.732849 0.000179 -0.000119 -159.434082 -17.916725 114.366882 328.732849
17 328.732849 0.000179 -0.000119 -153.598343 -18.703510 107.249138 328.732849
[Rope2_Seg01]
16 0.000095 0.000153 0.000038 -1.388269 25.111439 117.583740 0.000184
17 0.000095 0.000153 0.000041 -12.433828 23.532248 107.982307 0.000184
[Rope2_Seg02]
16 139.999741 -0.000060 -0.000119 -0.576158 1.251565 -1.275795 139.999756
17 139.999741 -0.000060 -0.000119 -0.421419 -1.634751 0.185734 139.999756
[Rope2_Seg03]
16 140.000107 0.000030 0.000000 -0.679577 1.634184 -1.635409 140.000107
17 140.000107 0.000030 0.000000 -0.450965 -1.639688 0.176284 140.000107
[Rope2_Seg04]
16 139.999802 0.000000 -0.000060 -1.060404 2.776409 -2.779974 139.999802
17 139.999802 0.000000 -0.000060 -0.641800 -2.252239 0.271507 139.999802
[Rope2_Seg05]
16 139.999985 -0.000060 0.000119 -1.283206 4.047094 -3.850223 139.999985
17 139.999985 -0.000060 0.000119 -0.664441 -1.921203 0.195817 139.999985
[Rope2_Seg06]
16 139.999893 -0.000030 -0.000119 0.207942 -0.266536 0.619396 139.999893
17 139.999893 -0.000030 -0.000119 -0.151778 0.090484 -0.151778 139.999893
[Rope2_Seg07]
16 139.999893 0.000060 -0.000060 0.153375 -0.340318 0.540289 139.999893
17 139.999893 0.000060 -0.000060 0.195030 1.416785 -0.361940 139.999893
[Rope2_Seg09]
16 121.338966 0.000089 -0.000060 136.879395 0.546403 -1.506368 121.338966
17 121.338966 0.000089 -0.000060 136.879395 0.546403 -1.506368 121.338966
[R_mid_hand01]
16 104.680779 11.144459 -10.335981 -17.573614 44.823460 68.535278 105.778534
17 104.680779 11.144459 -10.335981 -19.101959 44.310642 66.357704 105.778534
[R_mid_hand02]
16 104.070427 2.443552 8.231699 51.246105 -66.659927 36.928188 104.424065
17 104.070427 2.443552 8.231699 53.483910 -65.365471 34.478874 104.424065
[R_mid_hand03]
16 106.028137 -11.221827 -5.996406 -176.706177 15.474276 -75.111900 106.788818
17 106.028137 -11.221827 -5.996406 -176.256592 15.372278 -73.420403 106.788818
[spine02]
16 129.756927 0.001550 0.000119 -0.439185 -15.264894 -3.228288 129.756927
17 129.756927 0.001550 0.000119 -0.406965 -15.080543 -3.397268 129.756927
[spine03]
16 78.614044 0.081558 -4.899013 2.018149 3.767957 18.325851 78.766579
17 78.614044 0.081553 -4.899013 2.009609 3.773338 18.202856 78.766579
[pelvis]
16 169.435242 0.051022 0.000000 -0.062657 -0.179475 15.484344 169.435257
17 169.435242 0.051022 0.000000 -0.062488 -0.179534 15.376228 169.435257
[null_rope03_connect]
16 -1.257226 -2.466202 137.391083 106.220688 -24.683241 -44.401585 137.418976
17 -1.257226 -2.466202 137.391083 106.325478 -25.109320 -42.980473 137.418976
[null_rope04_connect]
16 -1.259640 -2.480268 -137.844437 106.220688 -24.683241 -44.401585 137.872513
17 -1.259640 -2.480268 -137.844437 106.325478 -25.109320 -42.980473 137.872513
[Rope3_Seg01]
16 0.000000 0.000000 0.000000 15.742226 4.069053 88.970428 0.000000
17 0.000000 0.000000 0.000000 16.764200 -0.935588 88.528053 0.000000
[Rope3_Seg02]
16 139.999924 -0.000119 0.000060 -0.707978 6.519231 0.848076 139.999924
17 139.999924 -0.000119 0.000060 -1.073130 7.275853 0.399290 139.999924
[Rope3_Seg03]
16 139.999924 -0.000119 0.000119 -0.321487 6.248902 0.885583 139.999924
17 139.999924 -0.000119 0.000119 -0.585522 7.086272 0.520393 139.999924
[Rope3_Seg04]
16 139.999924 0.000119 0.000000 -0.048341 9.235484 0.240892 139.999924
17 139.999924 0.000119 0.000000 -0.401254 9.377295 -0.616801 139.999924
[Rope3_Seg05]
16 139.999924 -0.000238 0.000060 0.394932 4.505289 0.937820 139.999924
17 139.999924 -0.000238 0.000060 0.315367 5.878132 0.612122 139.999924
[Rope3_Seg06]
16 139.999893 -0.000119 -0.000060 -0.045800 -3.683291 2.091408 139.999893
17 139.999893 -0.000119 -0.000060 0.161946 -1.214854 3.081650 139.999893
[Rope3_Seg07]
16 139.999771 0.000060 -0.000119 -0.038196 -5.430944 2.093016 139.999771
17 139.999771 0.000060 -0.000119 -0.170251 -3.793813 3.694499 139.999771
[Rope3_Seg08]
16 139.999985 -0.000060 0.000000 0.380532 -1.772672 1.088920 139.999985
17 139.999985 -0.000060 0.000000 0.304012 -0.883688 1.844195 139.999985
[Rope3_Seg09]
16 90.185997 -0.000179 -0.000060 89.795311 -1.358474 -0.848592 90.185997
17 90.185997 -0.000179 -0.000060 133.046616 -1.361664 -0.846552 90.185997
[R_rear_hand01]
16 103.366196 -6.073594 -10.757982 -156.049316 6.070419 -2.795869 104.101845
17 103.366196 -6.073594 -10.757982 -156.049316 6.070419 -2.795869 104.101845
[R_rear_hand02]
16 100.509819 12.039542 -7.992327 -38.708435 1.958051 5.461186 101.543350
17 100.509819 12.039542 -7.992327 -38.708424 1.958050 5.461185 101.543350
[R_rear_hand03]
16 101.539970 5.215704 5.435467 84.307625 -2.361032 4.099037 101.819031
17 101.539970 5.215704 5.435467 84.307625 -2.361032 4.099037 101.819031
[Rope4_Seg01]
16 -0.000014 -0.000038 -0.000153 -21.517588 -12.135418 -15.086505 0.000158
17 -0.000014 -0.000036 -0.000153 -37.951572 -8.981447 -7.454607 0.000157
[Rope4_Seg02]
16 139.999985 0.000060 0.000119 4.504152 -10.458198 -8.842785 139.999985
17 139.999985 0.000060 0.000119 10.280087 -7.303723 -11.539419 139.999985
[Rope4_Seg03]
16 139.999924 0.000000 -0.000238 3.982008 -16.148706 -12.184085 139.999924
17 139.999924 0.000000 -0.000238 8.347800 -14.849742 -17.005938 139.999924
[Rope4_Seg04]
16 139.999985 0.000000 0.000119 4.313606 -18.500271 -16.450480 139.999985
17 139.999985 0.000000 0.000119 7.438767 -18.031952 -23.980978 139.999985
[Rope4_Seg05]
16 139.999802 -0.000060 -0.000119 0.828597 -10.665663 -10.326978 139.999802
17 139.999802 -0.000060 -0.000119 0.664563 -9.732756 -10.159119 139.999802
[Rope4_Seg06]
16 139.999924 0.000000 0.000060 0.581462 -7.164774 -2.135961 139.999924
17 139.999924 0.000000 0.000060 1.324459 -10.696943 -0.917166 139.999924
[Rope4_Seg07]
16 139.999802 0.000000 0.000000 4.930129 -17.119530 4.647521 139.999802
17 139.999802 0.000000 0.000000 25.719181 -52.737762 26.113234 139.999802
[Rope4_Seg08]
16 139.999924 0.000000 0.000119 32.339413 -50.576134 34.713936 139.999924
17 139.999924 0.000000 0.000119 32.793205 -23.988321 38.014477 139.999924
[Rope4_Seg09]
16 90.185791 0.000060 0.000060 -135.617828 2.228885 0.850567 90.185791
17 90.185791 0.000060 0.000060 -135.617828 2.228885 0.850567 90.185791
[L_rear_hand01]
16 101.696655 -8.392275 -7.654577 -19.915020 -33.950905 119.950104 102.329041
17 101.696655 -8.392275 -7.654577 -19.915020 -33.950905 119.950104 102.329041
[L_rear_hand02]
16 102.726799 -1.568258 5.773216 77.862221 61.878510 165.399200 102.900848
17 102.726799 -1.568258 5.773216 77.862221 61.878510 165.399200 102.900848
[L_rear_hand03]
16 104.552910 9.721220 -10.420293 -173.099182 -23.740307 -117.327896 105.519653
17 104.552910 9.721220 -10.420293 -173.099182 -23.740307 -117.327896 105.519653
